<?xml version="1.0" encoding="utf-8"?>
<!-- Generator: Adobe Illustrator 20.0.0, SVG Export Plug-In . SVG Version: 6.00 Build 0)  -->
<svg version="1.1" id="Calque_1" xmlns="http://www.w3.org/2000/svg" xmlns:xlink="http://www.w3.org/1999/xlink" x="0px" y="0px"
	 viewBox="0 0 60 57" style="enable-background:new 0 0 60 57;" xml:space="preserve">
<style type="text/css">
	.st0{fill:#91BE1A;}
	.st1{fill:#E41F13;}
	.st2{fill-rule:evenodd;clip-rule:evenodd;fill:#95C11F;}
	.st3{fill-rule:evenodd;clip-rule:evenodd;fill:#E41F13;}
	.st4{fill:#FFFFFF;}
</style>
<g>
	<path class="st0" d="M24.1,54l-0.2,0.4c2.9,2.4,9.6,3.6,14.2,0.7l0.1-1.2C33.6,56.8,27.4,56.4,24.1,54"/>
	<g>
		<path class="st1" d="M12.2,51.7c-0.5,0-0.8-0.1-1.1-0.2l0.2-0.5c0.2,0.1,0.4,0.2,0.7,0.2c0.4,0,0.7-0.3,0.7-0.6
			c0-0.3-0.2-0.5-0.7-0.7c-0.7-0.3-0.9-0.7-0.9-1.2c0-0.7,0.5-1.2,1.3-1.2c0.4,0,0.8,0.1,1,0.2l-0.2,0.5c-0.2-0.1-0.4-0.2-0.7-0.2
			c-0.4,0-0.6,0.2-0.6,0.6c0,0.4,0.3,0.5,0.7,0.7c0.9,0.3,1,0.8,1,1.2C13.6,51.2,13.1,51.7,12.2,51.7"/>
		<path class="st1" d="M16.2,51.7v-2.3c0-0.3-0.1-0.6-0.6-0.6c-0.2,0-0.4,0-0.5,0.1v2.7h-0.8v-4.8h0.8v1.7c0.3-0.1,0.5-0.2,0.8-0.2
			c0.9,0,1.2,0.5,1.2,1v2.3H16.2z"/>
		<path class="st1" d="M19.1,51.7c-0.9,0-1.4-0.4-1.4-1c0-0.9,0.9-1.1,1.9-1.2v-0.2c0-0.4-0.3-0.5-0.7-0.5c-0.3,0-0.6,0.1-0.9,0.2
			l-0.2-0.4c0.2-0.1,0.6-0.3,1.2-0.3c0.7,0,1.3,0.3,1.3,1.1v2C20,51.6,19.6,51.7,19.1,51.7 M19.6,49.8c-0.7,0.1-1.2,0.2-1.2,0.8
			c0,0.4,0.3,0.6,0.7,0.6c0.2,0,0.3,0,0.5-0.1V49.8z"/>
		<path class="st1" d="M22.6,48.8c-0.3-0.1-0.5-0.1-0.7,0v2.8h-0.8v-3.1c0.4-0.2,0.8-0.3,1.6-0.2L22.6,48.8z"/>
		<path class="st1" d="M23.7,47.8c-0.2,0-0.4-0.2-0.4-0.4c0-0.2,0.2-0.4,0.4-0.4c0.2,0,0.4,0.2,0.4,0.4
			C24.1,47.6,23.9,47.8,23.7,47.8 M23.3,48.3h0.8v3.3h-0.8V48.3z"/>
		<path class="st1" d="M26.8,51.7v-2.3c0-0.3-0.1-0.6-0.6-0.6c-0.2,0-0.4,0-0.5,0.1v2.8h-0.8v-3.1c0.3-0.1,0.8-0.2,1.3-0.2
			c1,0,1.4,0.5,1.4,1v2.4H26.8z"/>
		<path class="st1" d="M29.6,53c-0.5,0-0.9-0.1-1.2-0.2l0.2-0.5c0.2,0.1,0.5,0.2,0.8,0.2c0.6,0,0.8-0.3,0.8-0.7v-0.2
			c-0.1,0.1-0.3,0.1-0.6,0.1c-0.8,0-1.4-0.6-1.4-1.6c0-1.1,0.5-1.8,1.6-1.8c0.5,0,0.9,0.1,1.1,0.2v3.2C31,52.6,30.5,53,29.6,53
			 M30.3,48.8c-0.1-0.1-0.2-0.1-0.4-0.1c-0.6,0-0.8,0.5-0.8,1.3c0,0.8,0.2,1.2,0.8,1.2c0.2,0,0.3,0,0.4-0.1V48.8z"/>
		<path class="st1" d="M34.3,51.7c-0.4,0-0.7-0.1-0.9-0.2l0.2-0.5c0.1,0.1,0.4,0.2,0.6,0.2c0.3,0,0.5-0.2,0.5-0.5
			c0-0.3-0.1-0.4-0.5-0.5c-0.6-0.2-0.8-0.6-0.8-0.9c0-0.5,0.4-1,1.1-1c0.4,0,0.7,0.1,0.9,0.2L35.2,49c-0.1-0.1-0.3-0.2-0.5-0.2
			c-0.3,0-0.5,0.2-0.5,0.4c0,0.3,0.2,0.4,0.5,0.5c0.7,0.3,0.8,0.6,0.8,1C35.5,51.2,35,51.7,34.3,51.7"/>
		<path class="st1" d="M40,51.7v-2.3c0-0.3-0.2-0.5-0.6-0.5c-0.2,0-0.4,0.1-0.6,0.2v2.7h-0.8v-2.4c0-0.3-0.2-0.5-0.6-0.5
			c-0.2,0-0.4,0-0.5,0.1v2.8h-0.8v-3.1c0.3-0.2,0.7-0.2,1.3-0.2c0.5,0,0.9,0.2,1.1,0.4c0.2-0.2,0.6-0.4,1.1-0.4c0.8,0,1.2,0.5,1.2,1
			v2.4H40z"/>
		<path class="st1" d="M42,47.8c-0.2,0-0.4-0.2-0.4-0.4c0-0.2,0.2-0.4,0.4-0.4c0.2,0,0.4,0.2,0.4,0.4C42.4,47.6,42.3,47.8,42,47.8
			 M41.6,48.3h0.8v3.3h-0.8V48.3z"/>
		<rect x="43.3" y="46.8" class="st1" width="0.8" height="4.8"/>
		<path class="st1" d="M45.5,50.3c0.1,0.6,0.4,0.9,0.9,0.9c0.4,0,0.7-0.1,0.9-0.2l0.2,0.5c-0.2,0.1-0.6,0.2-1.1,0.2
			c-1,0-1.6-0.6-1.6-1.7c0-1.1,0.6-1.7,1.5-1.7c0.9,0,1.4,0.6,1.4,1.7L45.5,50.3z M46.2,48.7c-0.5,0-0.8,0.4-0.7,1.1l1.4-0.2
			C46.9,49,46.6,48.7,46.2,48.7"/>
		<path class="st1" d="M49,51.7c-0.4,0-0.7-0.1-0.9-0.2l0.2-0.5c0.1,0.1,0.4,0.2,0.6,0.2c0.3,0,0.5-0.2,0.5-0.5
			c0-0.3-0.2-0.4-0.5-0.5c-0.6-0.2-0.8-0.6-0.8-0.9c0-0.5,0.4-1,1.1-1c0.4,0,0.7,0.1,0.9,0.2L49.9,49c-0.1-0.1-0.3-0.2-0.5-0.2
			c-0.3,0-0.5,0.2-0.5,0.4c0,0.3,0.2,0.4,0.5,0.5c0.7,0.3,0.8,0.6,0.8,1C50.2,51.2,49.7,51.7,49,51.7"/>
	</g>
	<g>
		<g>
			<ellipse class="st2" cx="30" cy="21.4" rx="21.2" ry="21.2"/>
		</g>
		<g>
			<path class="st3" d="M39.7,14.6C40.2,13.7,42,12,42,12c2.9-3,1.8-3.2,1.8-3.2c-0.9-0.6-3.2,0.7-3.2,0.7c-1,0.5-3,1.9-3.1,2
				c-1.3-0.7-2.1-1-2.4-1.1c-0.5-0.2-0.8-0.2-1-0.2c-1.1,0-1.9,0.8-1.9,0.8c-0.6-0.2-2.4-0.8-3.3-0.9c-0.1,0-0.3,0-0.6,0
				c-0.5,0-1.4,0.1-1.9,0.3c-1,0.4-2,1.3-2.4,1.7c0,0-2.7-0.4-5.2-2.4c-0.4-0.2-1.8-1-2.4-0.3c0,0-0.5,1,0.5,2.4
				c0.1,0.1,0.1,0.2,0.2,0.2c0.2,0.3,0.5,0.6,0.8,0.9c0,0.1,0.1,0.1,0.1,0.2c0.7,0.6,1.4,1.7,1.7,2.4c-0.4-0.1-0.9-0.2-1.2-0.3
				c-1.2-0.2-1.4-0.2-2-0.1c-1.4,0.1-1.7,1.2-1.8,1.4c-0.2,1.4,0.3,2.2,0.7,3.1c0.1,0.2,0.3,0.6,0.7,0.9c0.4,0.4,0.8,0.9,2.9,1
				l0,0.5l-0.1,0l-0.2,0h0c-0.9,0.2-1.7,1.8-1.6,3.8c0.1,2.2,1,3.7,2,3.7c0,0,0,0,0,0l0.8,0c0.4,0,0.7-0.3,1-0.8l0.1,0.2
				c1,2.2,1.2,6,2.4,8.4c0.3,0.6,0.6,1.3,1.6,1.1c0.3-0.1,0.5-0.1,0.7-0.7c0.7-2.4,0.9-2.7,2.7-5c0.9,1.4,1.7,2.2,2.2,2.4
				c0.4,0.2,0.7,0.2,1.1,0.3c1.2,0.1,3.3,0.4,4.3-0.7c1.4-1.5,1.5-3.9,1.5-4.1c0.1-0.8,0.1-1.4,0.1-1.4c0.2-1.5,0.7-2.7,0.7-2.7
				s1.2-1.9,1.4-2.4c0,0,0,0,0,0l0,0c0,0,0,0,0,0c0.2,2,1.2,3.4,2.2,3.4l0.9-0.1c0,0,0,0,0,0c1.1-0.1,2-1.6,1.8-3.7
				c-0.1-2-0.9-3.1-1.5-3.3c-0.5-0.1-0.7-0.1-0.7-0.1s-0.1,0-0.1,0c0-0.2,0-0.3,0.1-0.5l0,0c0,0,1.5-0.3,2-1.2
				c0.6-1,0.9-1.9,1.2-2.8c0.3-0.9,0.3-1.4-0.7-1.6c-1-0.2-2.1-0.2-2.7-0.1C41.4,14.2,40,14.5,39.7,14.6z M41,20.2
				c-0.8,0.2-1.5,1.3-1.6,2.8c0,0,0,0,0,0h0v0c-0.2-0.6-0.7-1.4-0.7-1.4c-0.1-0.6,0.3-1.4,0.6-1.9c0.4,0.1,1.1,0.2,1.8,0.2L41,20.2z
				"/>
			<g>
				<path class="st4" d="M36.6,24.3c-0.2,0.1-0.5,0.1-0.7,0.1c-0.3,0-0.5-0.1-0.6-0.2c-0.1-0.2-0.1-0.4-0.1-0.7c0-0.1,0-0.2,0-0.3
					c0-0.5,0.4-6.9,0.4-6.9l0-0.1h-1.6l0,0.1c0,0-0.2,4-0.3,4.9c-0.2,2.1-1.7,3.2-2.9,3.2c-1.2,0-1.6-0.6-1.6-1.2c0.1,0,0.2,0,0.3,0
					c2.2,0,3.4-0.9,3.5-2.1c0,0,0-0.1,0-0.1c0-1-0.9-1.8-2.2-1.8c-1.6,0-2.8,1-3.2,2.6c-0.2-0.1-0.4-0.1-0.6-0.2
					c-0.1-1.3-0.9-2.4-2.3-2.4c-0.8,0-1.5,0.3-1.8,0.7l0.2-3.7h-1.5l-0.5,9l0,0c0.6,0.4,1.4,0.6,2.4,0.6h0c1.7,0,3.1-0.9,3.4-3
					c0.2,0.1,0.3,0.1,0.5,0.1c0,0,0,0,0,0c0,0.9,0.3,1.7,0.9,2.1c0.6,0.5,1.3,0.7,2.2,0.7c1.5,0,2.6-0.9,3.1-1.5
					c0.1,0.9,0.7,1.5,1.7,1.5c0.4,0,0.9-0.1,1.1-0.2l0,0l0.1-1.2L36.6,24.3z M31.6,20.9c0,0.4-0.3,0.6-0.7,0.8
					c-0.4,0.1-0.9,0.2-1.3,0.2c-0.1,0-0.1,0-0.2,0c0.1-0.7,0.7-1.6,1.5-1.6C31.3,20.4,31.6,20.6,31.6,20.9z M25.6,22
					c0,1.9-0.8,2.4-1.8,2.4c-0.3,0-0.6-0.1-0.9-0.2c0-0.4,0.1-1,0.1-1.6c0.1-1.4,0.7-2,1.5-2C25.2,20.5,25.6,21.1,25.6,22z"/>
			</g>
		</g>
	</g>
</g>
</svg>
